<svg width="25" height="25" viewBox="0 0 25 25" fill="none" xmlns="http://www.w3.org/2000/svg">
<path d="M14.9222 14.5702C14.6476 14.865 14.3164 15.1014 13.9484 15.2653C13.5804 15.4293 13.1831 15.5175 12.7803 15.5246C12.3775 15.5317 11.9774 15.4576 11.6039 15.3067C11.2303 15.1558 10.891 14.9312 10.6061 14.6464C10.3212 14.3615 10.0966 14.0222 9.94576 13.6486C9.79487 13.2751 9.72077 12.8749 9.72788 12.4721C9.73499 12.0693 9.82315 11.6721 9.98712 11.3041C10.1511 10.9361 10.3875 10.6049 10.6822 10.3302M18.7422 18.3902C17.0328 19.6932 14.9514 20.4151 12.8022 20.4502C5.80225 20.4502 1.80225 12.4502 1.80225 12.4502C3.04614 10.1321 4.77138 8.10683 6.86225 6.51022L18.7422 18.3902ZM10.7022 4.69022C11.3906 4.5291 12.0953 4.44856 12.8022 4.45022C19.8022 4.45022 23.8022 12.4502 23.8022 12.4502C23.1952 13.5858 22.4713 14.655 21.6422 15.6402L10.7022 4.69022Z" stroke="black" stroke-width="2" stroke-linecap="round" stroke-linejoin="round"/>
<path d="M1.80225 1.4502L23.8022 23.4502" stroke="black" stroke-width="2" stroke-linecap="round" stroke-linejoin="round"/>
</svg>
