<svg width="46" height="47" viewBox="0 0 46 47" fill="none" xmlns="http://www.w3.org/2000/svg">
<rect y="0.758057" width="46" height="46" rx="23" fill="white" fill-opacity="0.6"/>
<path d="M38.8442 20.0936H37.5084V20.0248H22.5834V26.6581H31.9555C30.5882 30.5195 26.9141 33.2915 22.5834 33.2915C17.0885 33.2915 12.6333 28.8363 12.6333 23.3414C12.6333 17.8465 17.0885 13.3914 22.5834 13.3914C25.1198 13.3914 27.4274 14.3483 29.1844 15.9112L33.875 11.2206C30.9132 8.46034 26.9514 6.75806 22.5834 6.75806C13.4252 6.75806 6 14.1833 6 23.3414C6 32.4996 13.4252 39.9248 22.5834 39.9248C31.7415 39.9248 39.1667 32.4996 39.1667 23.3414C39.1667 22.2295 39.0523 21.1441 38.8442 20.0936Z" fill="#FFC107"/>
<path d="M7.91211 15.6227L13.3606 19.6185C14.8348 15.9685 18.4052 13.3914 22.5834 13.3914C25.1198 13.3914 27.4274 14.3483 29.1844 15.9112L33.875 11.2206C30.9132 8.46034 26.9515 6.75806 22.5834 6.75806C16.2137 6.75806 10.6898 10.3542 7.91211 15.6227Z" fill="#FF3D00"/>
<path d="M22.5834 39.9248C26.8669 39.9248 30.759 38.2855 33.7017 35.6198L28.5692 31.2766C26.8483 32.5853 24.7454 33.2932 22.5834 33.2915C18.2701 33.2915 14.6076 30.5411 13.2279 26.7029L7.82007 30.8695C10.5646 36.24 16.1383 39.9248 22.5834 39.9248Z" fill="#4CAF50"/>
<path d="M38.8442 20.0937H37.5084V20.0249H22.5834V26.6583H31.9555C31.3014 28.496 30.1233 30.1019 28.5667 31.2775L28.5691 31.2759L33.7017 35.6191C33.3385 35.9491 39.1667 31.6333 39.1667 23.3416C39.1667 22.2297 39.0523 21.1443 38.8442 20.0937Z" fill="#1976D2"/>
</svg>
